<svg width="134" height="121" viewBox="0 0 134 121" fill="none" xmlns="http://www.w3.org/2000/svg">
<path fill-rule="evenodd" clip-rule="evenodd" d="M66.7871 1.02578C63.9771 4.14278 61.9971 9.97877 62.0231 15.0698C62.0581 22.1278 65.7591 29.9668 74.7761 42.0808C79.1861 48.0048 83.5151 54.5938 84.3971 56.7238C86.5101 61.8308 86.4411 69.9768 84.2471 74.2918C81.9101 78.8908 79.9991 79.3998 79.9991 75.4238C79.9991 70.5108 76.6301 64.5908 67.4301 53.3338C56.7661 40.2868 53.9991 35.1218 53.9991 28.2628C53.9991 23.6868 53.8221 23.2538 52.4261 24.4128C49.2551 27.0438 46.9991 33.1458 47.0091 39.0618C47.0221 46.7328 49.7011 52.3018 59.7301 65.4988C68.7121 77.3168 71.4961 83.8228 70.7771 91.3088C70.3591 95.6568 67.5531 101.245 65.7491 101.321C65.3371 101.338 64.9991 100.09 64.9991 98.5478C64.9991 95.1768 62.2501 90.7228 50.1781 74.5378C45.1361 67.7768 40.7341 61.1448 40.3961 59.7988C40.0591 58.4528 39.6331 57.3518 39.4501 57.3518C38.1281 57.3518 23.3861 63.1608 18.5881 65.5728C11.1781 69.2958 2.45207 77.4498 0.92507 82.0748C-4.05093 97.1548 11.7791 111.635 39.9991 117.817C50.2991 120.074 72.6641 120.914 83.1131 119.436C113.235 115.178 133.955 102.102 133.955 87.3518C133.955 75.2768 119.824 63.7988 98.2491 58.3488C94.0941 57.2988 93.9991 57.1808 93.9891 53.0628C93.9761 47.2408 90.6311 40.6398 81.4681 28.3528C70.8641 14.1348 69.7671 12.0768 69.0871 5.13178C68.5231 -0.625224 68.4281 -0.794225 66.7871 1.02578Z" fill="#FF0000"/>
</svg>
