<svg width="50" height="23" viewBox="0 0 50 23" fill="none" xmlns="http://www.w3.org/2000/svg">
<path fill-rule="evenodd" clip-rule="evenodd" d="M3.74769 0.117001C0.614685 0.862174 -0.934245 4.22665 0.595157 6.96442C1.09532 7.85957 2.7661 9.07054 12.0089 15.2366C20.236 20.7251 23.0972 22.504 23.9208 22.643C26.2422 23.0354 26.5627 22.8669 38.0004 15.2366C49.9195 7.28519 50 7.21437 50 4.6849C50 1.80367 47.7226 -0.0907733 44.475 0.089141C44.0272 0.114136 40.3193 2.42438 34.3857 6.37573L25.0047 12.623L15.6236 6.37573C10.4639 2.93965 6.02123 0.128457 5.75096 0.128457C5.48044 0.128457 5.10317 0.0821103 4.91258 0.0253501C4.72173 -0.0311498 4.19761 0.00998969 3.74769 0.117001Z" fill="white"/>
</svg>
